<?xml version="1.0" encoding="UTF-8"?>
<svg xmlns="http://www.w3.org/2000/svg" xmlns:xlink="http://www.w3.org/1999/xlink" width="512pt" height="512pt" viewBox="0 0 512 512" version="1.1">
<g id="surface1">
<path style=" stroke:none;fill-rule:nonzero;fill:rgb(100%,0%,0%);fill-opacity:1;" d="M 501.449219 133.09375 C 495.546875 111.160156 478.253906 93.871094 456.328125 87.964844 C 416.261719 77 255.996094 77 255.996094 77 C 255.996094 77 95.734375 77 55.667969 87.546875 C 34.160156 93.449219 16.445312 111.164062 10.542969 133.09375 C 0 173.15625 0 256.242188 0 256.242188 C 0 256.242188 0 339.746094 10.542969 379.390625 C 16.449219 401.320312 33.738281 418.613281 55.671875 424.519531 C 96.15625 435.484375 256 435.484375 256 435.484375 C 256 435.484375 416.261719 435.484375 456.328125 424.9375 C 478.257812 419.035156 495.546875 401.742188 501.453125 379.8125 C 511.996094 339.746094 511.996094 256.664062 511.996094 256.664062 C 511.996094 256.664062 512.417969 173.15625 501.449219 133.09375 Z M 501.449219 133.09375 "/>
<path style=" stroke:none;fill-rule:nonzero;fill:rgb(100%,100%,100%);fill-opacity:1;" d="M 204.96875 333 L 338.238281 256.242188 L 204.96875 179.484375 Z M 204.96875 333 "/>
</g>
</svg>
